<svg xmlns="http://www.w3.org/2000/svg" width="341.59" height="203.057" viewBox="0 0 341.59 203.057"><rect width="341.467" height="202.167" transform="translate(0.063)" fill="#fff"/><path d="M.063,12" fill="#ffffbd"/><path d="M36.323,49.445" fill="red"/><path d="M.063,20V76.5h96Z" fill="#13135f"/><path d="M109.911,76.5h19.652L.063,0V12Z" fill="red"/><path d="M37.916,0,147.563,67.486V0Z" fill="#12145b"/><path d="M341.563,182V126h-95Z" fill="#13135f"/><path d="M232.715,126H213.063l128.5,76.125V190Z" fill="red"/><path d="M304.681,203,195.035,135.514V203Z" fill="#12145b"/><path d="M341.563,20.513V76.5l-95-.068Z" fill="#13135f"/><path d="M195.063,76.5h22.3L341.563,0H319.009Z" fill="red"/><path d="M303.75,0,195.063,66.986V0Z" fill="#12145b"/><path d="M.071,182.481v-56.5h96Z" fill="#13135f"/><path d="M147.517,125.969h-22.3L0,203.057H22.572Z" fill="red"/><path d="M37.87,202.969l109.647-67.486v67.486Z" fill="#12145b"/><rect width="28.874" height="203" transform="translate(156.717)" fill="red"/><rect width="341.527" height="32.672" transform="translate(0.063 85.252)" fill="red"/></svg>