<svg xmlns="http://www.w3.org/2000/svg" width="168.75" height="50" viewBox="0 0 168.75 50"><path d="M162.746,50H5.911A5.925,5.925,0,0,1,0,44.084V5.907A5.916,5.916,0,0,1,5.911,0H162.746a6,6,0,0,1,6,5.907V44.084a6.005,6.005,0,0,1-6,5.916Z" fill="#a6a6a6"/><path d="M167.318,43.862a4.787,4.787,0,0,1-4.793,4.787H5.689a4.794,4.794,0,0,1-4.8-4.788V5.684A4.8,4.8,0,0,1,5.689.89H162.524a4.793,4.793,0,0,1,4.792,4.794V43.862Z" transform="translate(0.223 0.222)"/><g transform="translate(15.99 7.771)"><path d="M34.462,21.637a7.246,7.246,0,0,1,3.451-6.08,7.422,7.422,0,0,0-5.845-3.16c-2.459-.259-4.844,1.471-6.1,1.471-1.277,0-3.206-1.446-5.285-1.4a7.782,7.782,0,0,0-6.55,3.995c-2.832,4.9-.72,12.11,1.994,16.074,1.358,1.941,2.944,4.109,5.02,4.033,2.031-.084,2.79-1.3,5.241-1.3,2.429,0,3.141,1.3,5.259,1.246,2.18-.035,3.552-1.95,4.862-3.909a16.041,16.041,0,0,0,2.224-4.529A7,7,0,0,1,34.462,21.637Z" transform="translate(-12.792 -4.679)" fill="#fff"/><path d="M27.883,11.328a7.132,7.132,0,0,0,1.632-5.111,7.265,7.265,0,0,0-4.7,2.43,6.787,6.787,0,0,0-1.675,4.922A6,6,0,0,0,27.883,11.328Z" transform="translate(-10.213 -6.217)" fill="#fff"/></g><g transform="translate(53.013 22.501)"><path d="M56.454,34.831H53.615L52.06,29.945H46.655l-1.481,4.886H42.41L47.765,18.2h3.307Zm-4.862-6.936-1.406-4.344q-.223-.666-.839-3.134H49.3q-.246,1.061-.79,3.134l-1.381,4.344Z" transform="translate(-42.41 -17.952)" fill="#fff"/><path d="M66.972,27.807a6.816,6.816,0,0,1-1.654,4.836,4.836,4.836,0,0,1-3.678,1.58,3.677,3.677,0,0,1-3.406-1.7h-.05V38.84H55.52V25.906q0-1.924-.1-3.949h2.344l.149,1.9h.05a4.742,4.742,0,0,1,7.589-.47A6.609,6.609,0,0,1,66.972,27.807Zm-2.715.1a4.938,4.938,0,0,0-.79-2.887,2.728,2.728,0,0,0-2.32-1.185,2.771,2.771,0,0,0-1.789.654A3.032,3.032,0,0,0,58.31,26.2a3.489,3.489,0,0,0-.124.812v2a3.2,3.2,0,0,0,.8,2.21,2.66,2.66,0,0,0,2.085.9,2.728,2.728,0,0,0,2.344-1.16A5.105,5.105,0,0,0,64.257,27.9Z" transform="translate(-39.157 -17.074)" fill="#fff"/><path d="M78.009,27.807a6.811,6.811,0,0,1-1.655,4.836,4.831,4.831,0,0,1-3.676,1.58,3.674,3.674,0,0,1-3.4-1.7h-.05V38.84H66.558V25.906q0-1.924-.1-3.949H68.8l.149,1.9H69a4.743,4.743,0,0,1,7.59-.47A6.627,6.627,0,0,1,78.009,27.807Zm-2.715.1a4.939,4.939,0,0,0-.791-2.887,2.725,2.725,0,0,0-2.319-1.185,2.775,2.775,0,0,0-1.79.654A3.031,3.031,0,0,0,69.346,26.2a3.557,3.557,0,0,0-.124.812v2a3.215,3.215,0,0,0,.8,2.21,2.666,2.666,0,0,0,2.087.9,2.728,2.728,0,0,0,2.344-1.16A5.105,5.105,0,0,0,75.294,27.9Z" transform="translate(-36.398 -17.074)" fill="#fff"/><path d="M90.1,30.215a4.433,4.433,0,0,1-1.477,3.455,6.548,6.548,0,0,1-4.531,1.456,7.932,7.932,0,0,1-4.311-1.036l.618-2.221a7.305,7.305,0,0,0,3.853,1.063,3.642,3.642,0,0,0,2.346-.68,2.22,2.22,0,0,0,.837-1.818,2.317,2.317,0,0,0-.691-1.7,6.426,6.426,0,0,0-2.295-1.286q-4.369-1.629-4.368-4.77a4.221,4.221,0,0,1,1.531-3.361A6.036,6.036,0,0,1,85.687,18a8.074,8.074,0,0,1,3.775.79L88.8,20.963a6.55,6.55,0,0,0-3.184-.765,3.223,3.223,0,0,0-2.195.691,1.975,1.975,0,0,0-.666,1.506,2.033,2.033,0,0,0,.764,1.629,8.632,8.632,0,0,0,2.42,1.284,8.21,8.21,0,0,1,3.159,2.022A4.225,4.225,0,0,1,90.1,30.215Z" transform="translate(-33.067 -18.001)" fill="#fff"/><path d="M96.549,24.506H93.611v5.824q0,2.222,1.555,2.221a4.74,4.74,0,0,0,1.184-.124l.074,2.024a6.038,6.038,0,0,1-2.073.295,3.2,3.2,0,0,1-2.469-.963,4.728,4.728,0,0,1-.889-3.234V24.5h-1.75v-2h1.75v-2.2l2.618-.79V22.5h2.937v2Z" transform="translate(-30.701 -17.622)" fill="#fff"/><path d="M108.041,27.856a6.58,6.58,0,0,1-1.58,4.541,5.641,5.641,0,0,1-4.4,1.826,5.364,5.364,0,0,1-4.206-1.751,6.378,6.378,0,0,1-1.567-4.417,6.515,6.515,0,0,1,1.616-4.565,5.594,5.594,0,0,1,4.355-1.778,5.478,5.478,0,0,1,4.245,1.753A6.306,6.306,0,0,1,108.041,27.856Zm-2.765.086a5.4,5.4,0,0,0-.715-2.846,2.632,2.632,0,0,0-2.393-1.435A2.672,2.672,0,0,0,99.724,25.1a5.5,5.5,0,0,0-.715,2.9,5.388,5.388,0,0,0,.715,2.845,2.724,2.724,0,0,0,4.812-.025A5.415,5.415,0,0,0,105.276,27.942Z" transform="translate(-28.939 -17.073)" fill="#fff"/><path d="M113.9,24.3a4.627,4.627,0,0,0-.84-.074,2.518,2.518,0,0,0-2.173,1.063,3.993,3.993,0,0,0-.666,2.369v6.294h-2.664l.025-8.217q0-2.074-.1-3.776h2.321l.1,2.295h.074a4.1,4.1,0,0,1,1.333-1.9,3.222,3.222,0,0,1,1.926-.643,4.279,4.279,0,0,1,.666.049Z" transform="translate(-26.141 -17.073)" fill="#fff"/><path d="M124.288,27.392a6.251,6.251,0,0,1-.1,1.209H116.2a3.48,3.48,0,0,0,1.16,2.716,3.96,3.96,0,0,0,2.615.839,8.842,8.842,0,0,0,3.235-.568l.417,1.85a10,10,0,0,1-4.021.741,5.825,5.825,0,0,1-4.382-1.641,6.062,6.062,0,0,1-1.591-4.405,6.872,6.872,0,0,1,1.482-4.516,5.107,5.107,0,0,1,4.194-1.924,4.47,4.47,0,0,1,3.926,1.924A6.487,6.487,0,0,1,124.288,27.392Zm-2.541-.691a3.62,3.62,0,0,0-.518-2.049,2.328,2.328,0,0,0-2.124-1.111,2.528,2.528,0,0,0-2.121,1.086A3.977,3.977,0,0,0,116.2,26.7h5.551Z" transform="translate(-24.605 -17.078)" fill="#fff"/></g><g transform="translate(54.595 8.195)"><path d="M50.393,10.8a4.1,4.1,0,0,1-1.322,3.323,5.26,5.26,0,0,1-3.479,1.03,16.129,16.129,0,0,1-1.916-.1V7.016a14.141,14.141,0,0,1,2.256-.17,4.864,4.864,0,0,1,3.238.934A3.773,3.773,0,0,1,50.393,10.8Zm-1.381.036a2.988,2.988,0,0,0-.757-2.195,2.986,2.986,0,0,0-2.214-.764,5.544,5.544,0,0,0-1.055.085v6.111a6.916,6.916,0,0,0,.885.036,3.1,3.1,0,0,0,2.321-.836A3.349,3.349,0,0,0,49.012,10.836Z" transform="translate(-43.676 -6.483)" fill="#fff"/><path d="M56.063,11.64a3.232,3.232,0,0,1-.776,2.231,2.771,2.771,0,0,1-2.159.9,2.633,2.633,0,0,1-2.067-.861,3.137,3.137,0,0,1-.769-2.17A3.2,3.2,0,0,1,51.086,9.5a2.753,2.753,0,0,1,2.14-.873,2.7,2.7,0,0,1,2.086.86A3.111,3.111,0,0,1,56.063,11.64Zm-1.359.043a2.665,2.665,0,0,0-.351-1.4,1.294,1.294,0,0,0-1.175-.7,1.314,1.314,0,0,0-1.2.7,2.7,2.7,0,0,0-.351,1.423,2.665,2.665,0,0,0,.351,1.4,1.322,1.322,0,0,0,1.189.705,1.307,1.307,0,0,0,1.175-.718A2.648,2.648,0,0,0,54.7,11.683Z" transform="translate(-42.022 -6.039)" fill="#fff"/><path d="M64.472,8.719l-1.844,5.892h-1.2l-.764-2.559a19.15,19.15,0,0,1-.474-1.9h-.024a13.938,13.938,0,0,1-.474,1.9l-.811,2.559H57.669L55.935,8.719h1.346l.666,2.8q.242.994.4,1.891h.024q.146-.739.486-1.879l.836-2.812h1.068l.8,2.752q.291,1.007.472,1.94h.036a18.533,18.533,0,0,1,.4-1.94l.715-2.752h1.286Z" transform="translate(-40.611 -6.015)" fill="#fff"/><path d="M69.231,14.636h-1.31V11.261q0-1.56-1.187-1.56a1.182,1.182,0,0,0-.946.429,1.521,1.521,0,0,0-.364,1.01v3.495h-1.31V10.427q0-.776-.048-1.686h1.151l.061.921h.036a1.893,1.893,0,0,1,.679-.711,2.214,2.214,0,0,1,1.188-.331,1.88,1.88,0,0,1,1.371.534,2.593,2.593,0,0,1,.679,1.953Z" transform="translate(-38.578 -6.04)" fill="#fff"/><path d="M71.35,15.152H70.041v-8.6H71.35Z" transform="translate(-37.085 -6.556)" fill="#fff"/><path d="M78.412,11.64a3.232,3.232,0,0,1-.776,2.231,2.772,2.772,0,0,1-2.159.9,2.63,2.63,0,0,1-2.068-.861,3.137,3.137,0,0,1-.769-2.17A3.2,3.2,0,0,1,73.435,9.5a2.752,2.752,0,0,1,2.139-.873,2.7,2.7,0,0,1,2.087.86A3.111,3.111,0,0,1,78.412,11.64Zm-1.36.043a2.665,2.665,0,0,0-.351-1.4,1.292,1.292,0,0,0-1.174-.7,1.311,1.311,0,0,0-1.2.7,2.7,2.7,0,0,0-.351,1.423,2.665,2.665,0,0,0,.351,1.4,1.322,1.322,0,0,0,1.189.705,1.305,1.305,0,0,0,1.174-.718A2.637,2.637,0,0,0,77.052,11.683Z" transform="translate(-36.435 -6.039)" fill="#fff"/><path d="M83.3,14.635H82.121l-.1-.679h-.036a2.017,2.017,0,0,1-1.721.812,1.776,1.776,0,0,1-1.345-.534,1.674,1.674,0,0,1-.461-1.2,1.831,1.831,0,0,1,.9-1.649,4.69,4.69,0,0,1,2.541-.558v-.11q0-1.164-1.224-1.164a2.741,2.741,0,0,0-1.536.436l-.266-.86A3.779,3.779,0,0,1,80.9,8.623q2.31,0,2.312,2.437v2.17A9.205,9.205,0,0,0,83.3,14.635Zm-1.36-2.025V11.7q-2.167-.038-2.168,1.187a.888.888,0,0,0,.251.691.916.916,0,0,0,.64.23,1.323,1.323,0,0,0,.8-.273,1.119,1.119,0,0,0,.475-.927Z" transform="translate(-34.98 -6.039)" fill="#fff"/><path d="M89.41,15.152H88.248l-.061-.946H88.15a1.959,1.959,0,0,1-1.893,1.08,2.218,2.218,0,0,1-1.77-.836,3.258,3.258,0,0,1-.7-2.17,3.416,3.416,0,0,1,.764-2.316,2.348,2.348,0,0,1,1.819-.825,1.766,1.766,0,0,1,1.66.8h.025V6.556h1.311v7.009Q89.364,14.425,89.41,15.152Zm-1.357-2.485v-.983a1.928,1.928,0,0,0-.036-.412,1.492,1.492,0,0,0-.474-.794,1.288,1.288,0,0,0-.876-.321,1.344,1.344,0,0,0-1.152.582,2.5,2.5,0,0,0-.42,1.491,2.327,2.327,0,0,0,.4,1.419,1.348,1.348,0,0,0,1.145.581,1.262,1.262,0,0,0,1.035-.485A1.615,1.615,0,0,0,88.052,12.667Z" transform="translate(-33.649 -6.556)" fill="#fff"/><path d="M98.4,11.64a3.232,3.232,0,0,1-.776,2.231,2.769,2.769,0,0,1-2.159.9,2.637,2.637,0,0,1-2.067-.861,3.137,3.137,0,0,1-.769-2.17A3.2,3.2,0,0,1,93.425,9.5a2.754,2.754,0,0,1,2.141-.873,2.692,2.692,0,0,1,2.085.86A3.111,3.111,0,0,1,98.4,11.64Zm-1.357.043a2.665,2.665,0,0,0-.351-1.4,1.3,1.3,0,0,0-1.176-.7,1.317,1.317,0,0,0-1.2.7,2.7,2.7,0,0,0-.351,1.423,2.665,2.665,0,0,0,.351,1.4,1.339,1.339,0,0,0,2.365-.013A2.66,2.66,0,0,0,97.045,11.683Z" transform="translate(-31.437 -6.039)" fill="#fff"/><path d="M103.916,14.636h-1.309V11.261q0-1.56-1.189-1.56a1.178,1.178,0,0,0-.945.429,1.515,1.515,0,0,0-.364,1.01v3.495H98.8V10.427q0-.776-.046-1.686H99.9l.061.921H100a1.912,1.912,0,0,1,.679-.711,2.218,2.218,0,0,1,1.189-.331,1.88,1.88,0,0,1,1.37.534,2.589,2.589,0,0,1,.679,1.953Z" transform="translate(-29.907 -6.04)" fill="#fff"/><path d="M110.654,9.994h-1.442v2.863c0,.727.256,1.091.764,1.091a2.307,2.307,0,0,0,.584-.061l.034.994a2.943,2.943,0,0,1-1.017.146,1.566,1.566,0,0,1-1.211-.473,2.311,2.311,0,0,1-.438-1.589V9.994h-.861V9.012h.861V7.932l1.284-.387V9.011h1.443v.982Z" transform="translate(-27.829 -6.309)" fill="#fff"/><path d="M116.507,15.152H115.2V11.8q0-1.584-1.186-1.585a1.25,1.25,0,0,0-1.25.919,1.646,1.646,0,0,0-.061.471v3.544H111.39V6.556H112.7v3.551h.025a1.98,1.98,0,0,1,1.77-.969,1.826,1.826,0,0,1,1.348.534,2.684,2.684,0,0,1,.666,1.976v3.5Z" transform="translate(-26.747 -6.556)" fill="#fff"/><path d="M122.255,11.413a3.164,3.164,0,0,1-.049.594h-3.929a1.718,1.718,0,0,0,.569,1.334,1.951,1.951,0,0,0,1.286.412,4.34,4.34,0,0,0,1.589-.279l.2.91a4.933,4.933,0,0,1-1.978.364,2.856,2.856,0,0,1-2.151-.806,2.97,2.97,0,0,1-.781-2.164,3.372,3.372,0,0,1,.727-2.219,2.505,2.505,0,0,1,2.06-.945,2.192,2.192,0,0,1,1.926.945A3.146,3.146,0,0,1,122.255,11.413ZM121,11.074a1.764,1.764,0,0,0-.254-1.006,1.144,1.144,0,0,0-1.043-.546,1.244,1.244,0,0,0-1.042.534,1.983,1.983,0,0,0-.389,1.019H121Z" transform="translate(-25.341 -6.041)" fill="#fff"/></g></svg>