<svg xmlns="http://www.w3.org/2000/svg" xmlns:xlink="http://www.w3.org/1999/xlink" width="188.71" height="50" viewBox="0 0 188.71 50"><defs><linearGradient id="a" x1="-1.545" y1="1.697" x2="-1.468" y2="1.697" gradientUnits="objectBoundingBox"><stop offset="0" stop-color="#00a0ff"/><stop offset="0.007" stop-color="#00a1ff"/><stop offset="0.26" stop-color="#00beff"/><stop offset="0.512" stop-color="#00d2ff"/><stop offset="0.76" stop-color="#00dfff"/><stop offset="1" stop-color="#00e3ff"/></linearGradient><linearGradient id="b" x1="-3.237" y1="4.007" x2="-3.139" y2="4.007" gradientUnits="objectBoundingBox"><stop offset="0" stop-color="#ffe000"/><stop offset="0.409" stop-color="#ffbd00"/><stop offset="0.775" stop-color="orange"/><stop offset="1" stop-color="#ff9c00"/></linearGradient><linearGradient id="c" x1="-1.225" y1="2.333" x2="-1.165" y2="2.333" gradientUnits="objectBoundingBox"><stop offset="0" stop-color="#ff3a44"/><stop offset="1" stop-color="#c31162"/></linearGradient><linearGradient id="d" x1="-1.225" y1="3.333" x2="-1.165" y2="3.333" gradientUnits="objectBoundingBox"><stop offset="0" stop-color="#32a071"/><stop offset="0.068" stop-color="#2da771"/><stop offset="0.476" stop-color="#15cf74"/><stop offset="0.801" stop-color="#06e775"/><stop offset="1" stop-color="#00f076"/></linearGradient></defs><g transform="translate(627.226 -1650.774)"><g transform="translate(-627.226 1650.774)"><g transform="translate(0 0)"><path d="M8.388-3.333H-166.344c-3.844,0-6.989-2.812-6.989-6.25v-37.5c0-3.437,3.145-6.25,6.989-6.25H8.388c3.844,0,6.989,2.812,6.989,6.25v37.5c0,3.437-3.145,6.25-6.989,6.25" transform="translate(173.333 53.333)"/></g><g transform="translate(0 0)"><path d="M8.388,0H-166.344c-3.844,0-6.989,2.812-6.989,6.25v37.5c0,3.437,3.145,6.25,6.989,6.25H8.388c3.844,0,6.989-2.812,6.989-6.25V6.25C15.377,2.812,12.232,0,8.388,0m0,1c3.237,0,5.871,2.355,5.871,5.25v37.5c0,2.895-2.634,5.25-5.871,5.25H-166.344c-3.237,0-5.871-2.355-5.871-5.25V6.25c0-2.895,2.634-5.25,5.871-5.25H8.388" transform="translate(173.333 0)" fill="#a6a6a6"/></g><g transform="translate(57.804 8.582)"><path d="M.391-.282A3.194,3.194,0,0,1-.65,2.222a4.325,4.325,0,0,1-3.081,1.11A4.483,4.483,0,0,1-6.817,2.206,3.575,3.575,0,0,1-8.088-.585,3.578,3.578,0,0,1-6.817-3.378,4.489,4.489,0,0,1-3.731-4.5a4.755,4.755,0,0,1,1.721.315A3.484,3.484,0,0,1-.7-3.351l-.738.66a2.992,2.992,0,0,0-2.3-.89,3.4,3.4,0,0,0-2.291.832A2.722,2.722,0,0,0-6.988-.585a2.72,2.72,0,0,0,.966,2.162,3.39,3.39,0,0,0,2.291.832,3.387,3.387,0,0,0,2.343-.837A2.24,2.24,0,0,0-.686.053H-3.731v-.9H.333a2.9,2.9,0,0,1,.059.566" transform="translate(8.088 4.504)" fill="#fff"/></g><g transform="translate(57.804 8.582)"><path d="M.391-.282A3.194,3.194,0,0,1-.65,2.222a4.325,4.325,0,0,1-3.081,1.11A4.483,4.483,0,0,1-6.817,2.206,3.575,3.575,0,0,1-8.088-.585,3.578,3.578,0,0,1-6.817-3.378,4.489,4.489,0,0,1-3.731-4.5a4.755,4.755,0,0,1,1.721.315A3.484,3.484,0,0,1-.7-3.351l-.738.66a2.992,2.992,0,0,0-2.3-.89,3.4,3.4,0,0,0-2.291.832A2.722,2.722,0,0,0-6.988-.585a2.72,2.72,0,0,0,.966,2.162,3.39,3.39,0,0,0,2.291.832,3.387,3.387,0,0,0,2.343-.837A2.24,2.24,0,0,0-.686.053H-3.731v-.9H.333A2.9,2.9,0,0,1,.391-.282Z" transform="translate(8.088 4.504)" fill="none" stroke="#fff" stroke-miterlimit="10" stroke-width="0.267"/></g><g transform="translate(67.83 8.75)"><path d="M.226-.061H-3.593V2.316H-.149v.9H-3.593V5.595H.226v.922h-4.9v-7.5h4.9Z" transform="translate(4.671 0.983)" fill="#fff"/></g><g transform="translate(67.83 8.75)"><path d="M.226-.061H-3.593V2.316H-.149v.9H-3.593V5.595H.226v.922h-4.9v-7.5h4.9Z" transform="translate(4.671 0.983)" fill="none" stroke="#fff" stroke-miterlimit="10" stroke-width="0.267"/></g><g transform="translate(73.851 8.75)"><path d="M.158-.5H-.92V-7.079H-3.263V-8H2.5v.921H.158Z" transform="translate(3.263 8)" fill="#fff"/></g><g transform="translate(73.851 8.75)"><path d="M.158-.5H-.92V-7.079H-3.263V-8H2.5v.921H.158Z" transform="translate(3.263 8)" fill="none" stroke="#fff" stroke-miterlimit="10" stroke-width="0.267"/></g><path d="M93.25-57.333h1.078v7.5H93.25Z" transform="translate(-9.466 66.083)" fill="#fff" stroke="#fff" stroke-miterlimit="10" stroke-width="0.267"/><g transform="translate(86.221 8.75)"><path d="M.158-.5H-.92V-7.079H-3.263V-8H2.5v.921H.158Z" transform="translate(3.263 8)" fill="#fff"/></g><g transform="translate(86.221 8.75)"><path d="M.158-.5H-.92V-7.079H-3.263V-8H2.5v.921H.158Z" transform="translate(3.263 8)" fill="none" stroke="#fff" stroke-miterlimit="10" stroke-width="0.267"/></g><g transform="translate(95.51 8.582)"><path d="M.094-.4A3.268,3.268,0,0,0,2.372.438,3.268,3.268,0,0,0,4.651-.4a2.777,2.777,0,0,0,.932-2.152A2.775,2.775,0,0,0,4.651-4.71a3.269,3.269,0,0,0-2.278-.844A3.269,3.269,0,0,0,.094-4.71,2.779,2.779,0,0,0-.837-2.557,2.781,2.781,0,0,0,.094-.4M5.448.223A4.369,4.369,0,0,1,2.372,1.36,4.363,4.363,0,0,1-.7.223a3.629,3.629,0,0,1-1.236-2.78A3.631,3.631,0,0,1-.7-5.338,4.369,4.369,0,0,1,2.372-6.476a4.367,4.367,0,0,1,3.07,1.142A3.632,3.632,0,0,1,6.683-2.557,3.633,3.633,0,0,1,5.448.223" transform="translate(1.937 6.476)" fill="#fff"/></g><g transform="translate(95.51 8.582)"><path d="M.094-.4A3.268,3.268,0,0,0,2.372.438,3.268,3.268,0,0,0,4.651-.4a2.777,2.777,0,0,0,.932-2.152A2.775,2.775,0,0,0,4.651-4.71a3.269,3.269,0,0,0-2.278-.844A3.269,3.269,0,0,0,.094-4.71,2.779,2.779,0,0,0-.837-2.557,2.781,2.781,0,0,0,.094-.4ZM5.448.223A4.369,4.369,0,0,1,2.372,1.36,4.363,4.363,0,0,1-.7.223a3.629,3.629,0,0,1-1.236-2.78A3.631,3.631,0,0,1-.7-5.338,4.369,4.369,0,0,1,2.372-6.476a4.367,4.367,0,0,1,3.07,1.142A3.632,3.632,0,0,1,6.683-2.557,3.633,3.633,0,0,1,5.448.223Z" transform="translate(1.937 6.476)" fill="none" stroke="#fff" stroke-miterlimit="10" stroke-width="0.267"/></g><g transform="translate(105.643 8.75)"><path d="M0-.5V-8H1.311L5.387-2.166h.048L5.387-3.611V-8H6.466V-.5H5.341L1.076-6.617H1.03l.046,1.446V-.5Z" transform="translate(0 8)" fill="#fff"/></g><g transform="translate(105.643 8.75)"><path d="M0-.5V-8H1.311L5.387-2.166h.048L5.387-3.611V-8H6.466V-.5H5.341L1.076-6.617H1.03l.046,1.446V-.5Z" transform="translate(0 8)" fill="none" stroke="#fff" stroke-miterlimit="10" stroke-width="0.267"/></g><path d="M160.166-27.746h2.608V-43.372h-2.608Zm23.494-10-2.99,6.775h-.089l-3.1-6.775h-2.81l4.653,9.469-2.652,5.267h2.719l7.172-14.736Zm-14.792,8.222c-.855,0-2.046-.381-2.046-1.327,0-1.2,1.483-1.667,2.765-1.667a5.088,5.088,0,0,1,2.383.522,3.062,3.062,0,0,1-3.1,2.472m.315-8.564c-1.889,0-3.845.744-4.653,2.392l2.315.864a2.555,2.555,0,0,1,2.383-1.146c1.349,0,2.72.724,2.743,2.011v.16a6.309,6.309,0,0,0-2.72-.6c-2.5,0-5.036,1.226-5.036,3.517,0,2.091,2.046,3.439,4.339,3.439a3.8,3.8,0,0,0,3.328-1.529h.089v1.206h2.518v-5.991c0-2.774-2.315-4.321-5.3-4.321m-16.12,2.244h-3.71V-41.2h3.71a2.877,2.877,0,0,1,3.057,2.677,2.892,2.892,0,0,1-3.057,2.679m-.067-7.531h-6.25v15.626h2.607v-5.92h3.643c2.891,0,5.733-1.872,5.733-4.854s-2.842-4.852-5.733-4.852M118.914-29.519a3.22,3.22,0,0,1-3.31-3.2,3.241,3.241,0,0,1,3.31-3.242,3.142,3.142,0,0,1,3.175,3.242,3.12,3.12,0,0,1-3.175,3.2m3-7.35h-.091a4.354,4.354,0,0,0-3.13-1.187,5.6,5.6,0,0,0-5.7,5.336,5.583,5.583,0,0,0,5.7,5.3,4.273,4.273,0,0,0,3.13-1.209h.091v.766a2.87,2.87,0,0,1-3.176,3.121,3.278,3.278,0,0,1-3-1.894l-2.274.846a5.678,5.678,0,0,0,5.27,3.141c3.063,0,5.653-1.611,5.653-5.537v-9.546h-2.477Zm4.279,9.122H128.8V-43.373h-2.613ZM132.65-32.9a3.08,3.08,0,0,1,3.107-3.1,2.351,2.351,0,0,1,2.207,1.127Zm8.108-1.772a5.447,5.447,0,0,0-5.09-3.382,5.346,5.346,0,0,0-5.607,5.316c0,2.98,2.522,5.316,5.9,5.316a6.088,6.088,0,0,0,4.955-2.356l-2.027-1.209a3.5,3.5,0,0,1-2.928,1.47,3.073,3.073,0,0,1-2.882-1.61l7.95-2.941ZM77.424-36.425v2.255h6.035a4.491,4.491,0,0,1-1.373,2.839,6.555,6.555,0,0,1-4.662,1.652c-3.717,0-6.622-2.679-6.622-6s2.9-6,6.622-6a6.845,6.845,0,0,1,4.549,1.611l1.779-1.591a9.355,9.355,0,0,0-6.328-2.276c-5.09,0-9.368,3.706-9.368,8.257s4.279,8.256,9.368,8.256a8.974,8.974,0,0,0,6.44-2.316,7,7,0,0,0,2.185-5.276,6.538,6.538,0,0,0-.136-1.409Zm15.487,6.906a3.251,3.251,0,0,1-3.356-3.221,3.238,3.238,0,0,1,3.356-3.222,3.238,3.238,0,0,1,3.355,3.222,3.25,3.25,0,0,1-3.355,3.221m0-8.537c-3.289,0-5.969,2.235-5.969,5.316,0,3.061,2.68,5.316,5.969,5.316s5.967-2.255,5.967-5.316c0-3.081-2.68-5.316-5.967-5.316m13.018,8.537a3.251,3.251,0,0,1-3.356-3.221,3.238,3.238,0,0,1,3.356-3.222,3.237,3.237,0,0,1,3.355,3.222,3.249,3.249,0,0,1-3.355,3.221m0-8.537c-3.288,0-5.967,2.235-5.967,5.316,0,3.061,2.68,5.316,5.967,5.316s5.967-2.255,5.967-5.316c0-3.081-2.68-5.316-5.967-5.316" transform="translate(-10.685 65.246)" fill="#fff"/></g><g transform="translate(-613.285 1660.105)"><path d="M27.276-56.622a2.347,2.347,0,0,0-.646,1.756h0v27.645a2.346,2.346,0,0,0,.646,1.756h0l.1.09L44.7-40.861v-.366L27.38-56.713Z" transform="translate(-26.631 56.713)" fill="url(#a)"/></g><g transform="translate(-595.216 1670.429)"><path d="M43.865-40.539v.366l5.772,5.165.131-.066,6.84-3.475c1.953-.994,1.953-2.619,0-3.61h0l-6.84-3.476-.13-.066Z" transform="translate(-43.865 45.701)" fill="url(#b)"/></g><g transform="translate(-612.639 1675.775)"><path d="M27.247-24.42a2.486,2.486,0,0,0,2.906.077h0l20.42-10.376L44.669-40Z" transform="translate(-27.247 39.999)" fill="url(#c)"/></g><g transform="translate(-612.639 1659.699)"><path d="M27.247-56.649,44.669-41.07l5.9-5.28L30.153-56.725a3.5,3.5,0,0,0-1.567-.421h0a1.9,1.9,0,0,0-1.339.5" transform="translate(-27.247 57.147)" fill="url(#d)"/></g></g></svg>