<svg id="ba0d9b5b-5800-4e5e-b35d-d7904acab054" data-name="LOGOTYPE" xmlns="http://www.w3.org/2000/svg" viewBox="0 0 321 218"><rect x="-61" y="-51" width="442.2" height="323.15" fill="none"/><path d="M140.47,184.5a17.43,17.43,0,0,1-.39,2.49,11.52,11.52,0,0,1-.79,2.27,7,7,0,0,1-1.35,1.89,6,6,0,0,1-2.24,1.38,8.53,8.53,0,0,1-3,.51,9.28,9.28,0,0,1-3.3-.57,6.79,6.79,0,0,1-2.81-2.25v12.24h-3.17V171.13h3.17v2.55a6.63,6.63,0,0,1,2.81-2.27,9.77,9.77,0,0,1,3.3-.55,8.53,8.53,0,0,1,3,.51,6.08,6.08,0,0,1,2.24,1.39,6.8,6.8,0,0,1,1.35,1.89,11.22,11.22,0,0,1,.79,2.26,17.43,17.43,0,0,1,.39,2.49c.08.85.11,1.7.11,2.55S140.55,183.65,140.47,184.5Zm-3.23-5.63a8.08,8.08,0,0,0-.75-2.64,4.67,4.67,0,0,0-1.65-1.85,6.11,6.11,0,0,0-5.67,0,4.77,4.77,0,0,0-1.66,1.85,8.34,8.34,0,0,0-.76,2.64,23.52,23.52,0,0,0,0,6.16,8.09,8.09,0,0,0,.76,2.64,4.77,4.77,0,0,0,1.66,1.85,6.11,6.11,0,0,0,5.67,0,4.54,4.54,0,0,0,1.65-1.85,8.08,8.08,0,0,0,.75-2.64A26.44,26.44,0,0,0,137.24,178.87Z" fill="#6d6e71"/><path d="M163.57,186.68a8.11,8.11,0,0,1-2.13,3.9,8.42,8.42,0,0,1-2.69,1.8,8.8,8.8,0,0,1-3.51.66,8.89,8.89,0,0,1-3.53-.66,8.54,8.54,0,0,1-2.68-1.8,7.31,7.31,0,0,1-1.34-1.83,10.16,10.16,0,0,1-.79-2.07,13.38,13.38,0,0,1-.4-2.26c-.07-.8-.11-1.62-.11-2.47a17.82,17.82,0,0,1,.11-2.44,13.72,13.72,0,0,1,.4-2.29,10.16,10.16,0,0,1,.79-2.07,7.26,7.26,0,0,1,1.34-1.82,8.57,8.57,0,0,1,2.68-1.81,8.89,8.89,0,0,1,3.53-.66,8.8,8.8,0,0,1,3.51.66,8.61,8.61,0,0,1,2.69,1.81,8,8,0,0,1,2.13,3.89,22.19,22.19,0,0,1,0,9.46Zm-2.7-6.58a13.61,13.61,0,0,0-.22-1.8,7.39,7.39,0,0,0-.53-1.65,5.69,5.69,0,0,0-.92-1.39,5.75,5.75,0,0,0-7.92,0,4.58,4.58,0,0,0-.95,1.39,10.57,10.57,0,0,0-.53,1.65,10.82,10.82,0,0,0-.24,1.8v3.7a10.35,10.35,0,0,0,.77,3.48,3.93,3.93,0,0,0,.95,1.36,5.29,5.29,0,0,0,3.92,1.58,5.37,5.37,0,0,0,4-1.58,4.8,4.8,0,0,0,.92-1.36,8.87,8.87,0,0,0,.53-1.68,12.12,12.12,0,0,0,.22-1.8V182c0-.62,0-1.23,0-1.85Z" fill="#6d6e71"/><path d="M183.13,175.26a6.12,6.12,0,0,0-1.67-1.23,5.4,5.4,0,0,0-2.07-.35,5.14,5.14,0,0,0-2.15.44,4.49,4.49,0,0,0-1.63,1.23,5.93,5.93,0,0,0-1,1.85,6.87,6.87,0,0,0-.37,2.29v13.29H171V171.13h3.17v2.64a6,6,0,0,1,2.53-2.14,8.33,8.33,0,0,1,3.54-.77,8.59,8.59,0,0,1,2.8.44,6.64,6.64,0,0,1,2.39,1.59Z" fill="#6d6e71"/><path d="M195.8,192.78a5.83,5.83,0,0,1-2.44-.47,4.74,4.74,0,0,1-1.72-1.25,5.45,5.45,0,0,1-1-1.85,7.09,7.09,0,0,1-.35-2.24V173.68h-2.73v-2.42h2.73v-6.78h3.17v6.78h4.62v2.42h-4.62v13.2a3.48,3.48,0,0,0,.7,2.33,2.79,2.79,0,0,0,2.24.84h1.68v2.73Z" fill="#6d6e71"/><path d="M216.44,192.78v-2.07a7.45,7.45,0,0,1-2.71,1.82,10.37,10.37,0,0,1-3.54.51,12,12,0,0,1-3.67-.46,6,6,0,0,1-2.45-1.52,5.27,5.27,0,0,1-1.21-2,7,7,0,0,1-.41-2.44,5.73,5.73,0,0,1,1.91-4.55,8.16,8.16,0,0,1,5.57-1.7h6.51V178.3a4.65,4.65,0,0,0-1.28-3.56c-.85-.79-2.27-1.19-4.27-1.19a8.08,8.08,0,0,0-3.3.55,5.6,5.6,0,0,0-2.15,1.92l-2.16-2a7.47,7.47,0,0,1,3.24-2.56,12.75,12.75,0,0,1,4.42-.66q4.4,0,6.53,1.83a6.72,6.72,0,0,1,2.14,5.39v14.7Zm0-10h-6.07c-3.23,0-4.84,1.27-4.84,3.83a3.28,3.28,0,0,0,1.18,2.79,6.38,6.38,0,0,0,3.79.9,14.33,14.33,0,0,0,2.62-.22,4.16,4.16,0,0,0,2.22-1.23,5.17,5.17,0,0,0,1.1-3.74Z" fill="#6d6e71"/><path d="M232.89,192.78a5,5,0,0,1-4.18-1.65,6.37,6.37,0,0,1-1.32-4.12V161.45h3.17v25.43a3.85,3.85,0,0,0,.62,2.38,2.78,2.78,0,0,0,2.29.79h1.71v2.73Z" fill="#6d6e71"/><path d="M228.13,22.7a20.64,20.64,0,0,0,36.85,0Z" fill="#ce181e" fill-rule="evenodd"/><path d="M301.83,22.7a20.64,20.64,0,0,0-36.85,0Z" fill="#ce181e" fill-rule="evenodd"/><path d="M219.63,36.87a20.64,20.64,0,0,0,36.85,0Z" fill="#ce181e" fill-rule="evenodd"/><path d="M293.33,36.87a20.65,20.65,0,0,0-36.85,0Z" fill="#ce181e" fill-rule="evenodd"/><path d="M211.13,51.05a20.64,20.64,0,0,0,36.85,0Z" fill="#ce181e" fill-rule="evenodd"/><path d="M284.83,51.05a20.64,20.64,0,0,0-36.85,0Z" fill="#ce181e" fill-rule="evenodd"/><path d="M58.25,107.74l-14-29.54H37.76v29.54H18.37V28.37H49.61c17.5,0,26.91,12.48,26.91,25.52A22.85,22.85,0,0,1,63.68,74.63l17,33.11ZM48.72,45.87h-11v16h11a8,8,0,0,0,0-16Z" fill="#58595b"/><path d="M116.87,108.59c-9.36,0-16.47-3.13-22.34-9C86.06,91.19,86.4,80,86.4,68s-.34-23.18,8.13-31.58c5.87-5.82,13-9,22.34-9,15.24,0,27.55,8.4,30.48,26H127.26C126,49,123.54,45,117,45a9.6,9.6,0,0,0-7.79,3.36c-1.81,2.35-3,5.15-3,19.71s1.24,17.35,3,19.71A9.66,9.66,0,0,0,117,91.14c6.55,0,9-4,10.27-8.52h20.09C144.42,100.19,132.11,108.59,116.87,108.59Z" fill="#58595b"/><polygon points="211.13 28.37 154.43 28.37 154.43 45.38 172.86 45.38 172.86 107.74 192.7 107.74 192.7 45.38 211.13 45.38 211.13 28.37" fill="#58595b"/><path d="M140.35,138.11a19,19,0,0,1-.4,2.49,10.91,10.91,0,0,1-.79,2.27,7,7,0,0,1-1.34,1.89,6.25,6.25,0,0,1-2.25,1.39,8.75,8.75,0,0,1-3,.5,9.28,9.28,0,0,1-3.3-.57,6.79,6.79,0,0,1-2.82-2.24v12.09h-3.17V124.74h3.17v2.55a6.59,6.59,0,0,1,2.82-2.27,9.76,9.76,0,0,1,3.3-.54,8.75,8.75,0,0,1,3,.5,6.25,6.25,0,0,1,2.25,1.39,7,7,0,0,1,1.34,1.89,11.22,11.22,0,0,1,.79,2.26,19,19,0,0,1,.4,2.49c.07.85.11,1.7.11,2.55S140.42,137.27,140.35,138.11Zm-3.24-5.63a7.84,7.84,0,0,0-.75-2.64,4.58,4.58,0,0,0-1.65-1.84,6,6,0,0,0-5.67,0,4.58,4.58,0,0,0-1.65,1.84,8.36,8.36,0,0,0-.77,2.64,23.52,23.52,0,0,0,0,6.16,8.36,8.36,0,0,0,.77,2.64,4.54,4.54,0,0,0,1.65,1.85,6,6,0,0,0,5.67,0,4.54,4.54,0,0,0,1.65-1.85,7.84,7.84,0,0,0,.75-2.64A26.44,26.44,0,0,0,137.11,132.48Z" fill="#6d6e71"/><path d="M163.48,140.29a8.11,8.11,0,0,1-2.13,3.9,8.42,8.42,0,0,1-2.69,1.8,9.71,9.71,0,0,1-7,0,8.37,8.37,0,0,1-2.68-1.8,6.91,6.91,0,0,1-1.34-1.83,10.19,10.19,0,0,1-.8-2.07,13.36,13.36,0,0,1-.39-2.26c-.08-.82-.11-1.65-.11-2.47a18,18,0,0,1,.11-2.44,13.7,13.7,0,0,1,.39-2.29,10.34,10.34,0,0,1,.8-2.06,6.91,6.91,0,0,1,1.34-1.83,8.37,8.37,0,0,1,2.68-1.8,9.71,9.71,0,0,1,7,0,8.42,8.42,0,0,1,2.69,1.8,8.11,8.11,0,0,1,2.13,3.89A22.19,22.19,0,0,1,163.48,140.29Zm-2.71-6.57a12.26,12.26,0,0,0-.22-1.81,7.36,7.36,0,0,0-.52-1.65,5.4,5.4,0,0,0-.93-1.38,5.66,5.66,0,0,0-7.87,0,4.26,4.26,0,0,0-.95,1.38,9.61,9.61,0,0,0-.53,1.65,11.08,11.08,0,0,0-.24,1.81v3.69a11.08,11.08,0,0,0,.24,1.81,10.81,10.81,0,0,0,.53,1.67,3.8,3.8,0,0,0,.95,1.36,5.66,5.66,0,0,0,7.87,0,4.39,4.39,0,0,0,.93-1.36,8.28,8.28,0,0,0,.52-1.67,12.26,12.26,0,0,0,.22-1.81v-1.85c0-.62,0-1.23,0-1.84Z" fill="#6d6e71"/><path d="M191.4,146.4h-2.94l-5.68-16.81-5.63,16.81h-3l-6.86-21.65h3.43l5,17.38,5.68-17.38h2.72l5.72,17.38,4.93-17.38h3.43Z" fill="#6d6e71"/><path d="M204.7,136.4a8.31,8.31,0,0,0,1.63,5.49,5.82,5.82,0,0,0,4.75,2,7.21,7.21,0,0,0,3.14-.6,8.94,8.94,0,0,0,2.53-1.87l2.16,1.89a19.23,19.23,0,0,1-1.65,1.47,8.57,8.57,0,0,1-1.74,1.05,9.35,9.35,0,0,1-2,.65,12.17,12.17,0,0,1-2.48.22,10.76,10.76,0,0,1-3.89-.66,7.45,7.45,0,0,1-3-2,9.35,9.35,0,0,1-1.92-3.46,16.22,16.22,0,0,1-.68-5c0-3.52.79-6.24,2.38-8.18a7.93,7.93,0,0,1,6.51-2.9,8,8,0,0,1,6.55,2.81,11.66,11.66,0,0,1,2.34,7.66v1.45Zm11.35-3.52a5.56,5.56,0,0,0-.11-.88,5.06,5.06,0,0,0-.18-.77c-.07-.25-.17-.52-.28-.81a5.06,5.06,0,0,0-2-2.38,5.84,5.84,0,0,0-6.16,0,5.06,5.06,0,0,0-2,2.38,8,8,0,0,0-.49,1.58,14.85,14.85,0,0,0-.17,2H216.1c0-.43,0-.8,0-1.12Z" fill="#6d6e71"/><path d="M238.56,128.88a6,6,0,0,0-1.67-1.24,5.88,5.88,0,0,0-4.23.09A4.7,4.7,0,0,0,231,129a5.93,5.93,0,0,0-1,1.85,6.87,6.87,0,0,0-.37,2.29v13.29h-3.17V124.74h3.17v2.64a5.83,5.83,0,0,1,2.53-2.13,8.76,8.76,0,0,1,6.33-.33,6.44,6.44,0,0,1,2.4,1.58Z" fill="#6d6e71"/><rect x="18.37" y="11.36" width="283.46" height="144.57" fill="none"/></svg>