<svg id="b604093d-a0d4-4dbd-95f1-f9182137de60" data-name="Layer 1" xmlns="http://www.w3.org/2000/svg" viewBox="0 0 283.46 191.1"><g id="e8585590-bcc3-4530-906c-5eec77364772" data-name="fc6aa38a-b176-4c74-b222-968635cb534f"><g id="f7578dd5-606c-4a83-8cc6-a82516364702" data-name="e3e9f26b-2a36-4d75-be9c-2f0501ba2e86"><path d="M122.1,173.14a17.43,17.43,0,0,1-.39,2.49,11.52,11.52,0,0,1-.79,2.27,7,7,0,0,1-1.35,1.89,6.05,6.05,0,0,1-2.24,1.38,8.53,8.53,0,0,1-3,.51,9.28,9.28,0,0,1-3.3-.57,6.79,6.79,0,0,1-2.81-2.25V191.1h-3.17V159.77h3.17v2.55a6.63,6.63,0,0,1,2.81-2.27,9.77,9.77,0,0,1,3.3-.55,8.53,8.53,0,0,1,3,.51,6.21,6.21,0,0,1,2.24,1.39,6.8,6.8,0,0,1,1.35,1.89,11.22,11.22,0,0,1,.79,2.26,17.43,17.43,0,0,1,.39,2.49c.08.85.11,1.7.11,2.55S122.18,172.29,122.1,173.14Zm-3.23-5.63a8.08,8.08,0,0,0-.75-2.64,4.67,4.67,0,0,0-1.65-1.85,6.11,6.11,0,0,0-5.67,0,4.77,4.77,0,0,0-1.66,1.85,8.34,8.34,0,0,0-.76,2.64,23.52,23.52,0,0,0,0,6.16,8.09,8.09,0,0,0,.76,2.64,4.77,4.77,0,0,0,1.66,1.85,6.11,6.11,0,0,0,5.67,0,4.54,4.54,0,0,0,1.65-1.85,8.08,8.08,0,0,0,.75-2.64A33.36,33.36,0,0,0,118.87,167.51Z" transform="translate(0 0)" fill="#fff"/><path d="M145.2,175.32a8,8,0,0,1-2.13,3.9,8.42,8.42,0,0,1-2.69,1.8,8.8,8.8,0,0,1-3.51.66,8.89,8.89,0,0,1-3.53-.66,8.37,8.37,0,0,1-2.68-1.8,7.13,7.13,0,0,1-1.34-1.83,10.16,10.16,0,0,1-.79-2.07,13.38,13.38,0,0,1-.4-2.26c-.07-.8-.11-1.62-.11-2.47a18.12,18.12,0,0,1,.11-2.44,13.72,13.72,0,0,1,.4-2.29,10.16,10.16,0,0,1,.79-2.07,7.26,7.26,0,0,1,1.34-1.82,8.57,8.57,0,0,1,2.68-1.81,8.89,8.89,0,0,1,3.53-.66,8.8,8.8,0,0,1,3.51.66,8.61,8.61,0,0,1,2.69,1.81,8,8,0,0,1,2.13,3.89,22.19,22.19,0,0,1,0,9.46Zm-2.7-6.58a13.61,13.61,0,0,0-.22-1.8,7.39,7.39,0,0,0-.53-1.65,6.1,6.1,0,0,0-.92-1.39,5.75,5.75,0,0,0-7.92,0,4.58,4.58,0,0,0-.95,1.39,10,10,0,0,0-.77,3.45v3.7a10.17,10.17,0,0,0,.77,3.48,3.93,3.93,0,0,0,.95,1.36,5.75,5.75,0,0,0,7.92,0,5,5,0,0,0,.92-1.36,8.87,8.87,0,0,0,.53-1.68,12.12,12.12,0,0,0,.22-1.8Z" transform="translate(0 0)" fill="#fff"/><path d="M164.76,163.9a6.12,6.12,0,0,0-1.67-1.23,5.4,5.4,0,0,0-2.07-.35,5.14,5.14,0,0,0-2.15.44,4.49,4.49,0,0,0-1.63,1.23,5.93,5.93,0,0,0-1,1.85,6.87,6.87,0,0,0-.37,2.29v13.29h-3.24V159.77h3.17v2.64a6,6,0,0,1,2.53-2.14,8.48,8.48,0,0,1,3.54-.77,8.59,8.59,0,0,1,2.8.44,6.64,6.64,0,0,1,2.39,1.59Z" transform="translate(0 0)" fill="#fff"/><path d="M177.43,181.42A5.94,5.94,0,0,1,175,181a4.74,4.74,0,0,1-1.72-1.25,5.36,5.36,0,0,1-1-1.85,7.09,7.09,0,0,1-.35-2.24V162.32H169.2V159.9h2.73v-6.78h3.17v6.78h4.62v2.42H175.1v13.2a3.43,3.43,0,0,0,.7,2.33,2.8,2.8,0,0,0,2.24.84h1.68v2.73Z" transform="translate(0 0)" fill="#fff"/><path d="M198.07,181.42v-2.07a7.45,7.45,0,0,1-2.71,1.82,10.13,10.13,0,0,1-3.54.51,12,12,0,0,1-3.67-.46,6,6,0,0,1-2.45-1.52,5.27,5.27,0,0,1-1.21-2,7,7,0,0,1-.41-2.44,5.73,5.73,0,0,1,1.91-4.55,8.16,8.16,0,0,1,5.57-1.7h6.51v-2.07a4.65,4.65,0,0,0-1.28-3.56c-.85-.79-2.27-1.19-4.27-1.19a8.08,8.08,0,0,0-3.3.55,5.68,5.68,0,0,0-2.15,1.92l-2.16-2a7.47,7.47,0,0,1,3.24-2.56,12.75,12.75,0,0,1,4.42-.66q4.4,0,6.53,1.83a6.72,6.72,0,0,1,2.14,5.39v14.7Zm0-10H192c-3.23,0-4.84,1.27-4.84,3.83a3.28,3.28,0,0,0,1.18,2.79,6.38,6.38,0,0,0,3.79.9,13.5,13.5,0,0,0,2.62-.22,4.16,4.16,0,0,0,2.22-1.23,5.15,5.15,0,0,0,1.1-3.74Z" transform="translate(0 0)" fill="#fff"/><path d="M214.52,181.42a5,5,0,0,1-4.18-1.65,6.37,6.37,0,0,1-1.32-4.12V150.09h3.17v25.43a3.85,3.85,0,0,0,.62,2.38,2.78,2.78,0,0,0,2.29.79h1.71v2.73Z" transform="translate(0 0)" fill="#fff"/><path d="M209.76,11.34a20.63,20.63,0,0,0,36.85,0Z" transform="translate(0 0)" fill="#fff" fill-rule="evenodd"/><path d="M283.46,11.34a20.64,20.64,0,0,0-36.85,0Z" transform="translate(0 0)" fill="#fff" fill-rule="evenodd"/><path d="M201.26,25.51a20.63,20.63,0,0,0,36.85,0Z" transform="translate(0 0)" fill="#fff" fill-rule="evenodd"/><path d="M275,25.51a20.65,20.65,0,0,0-36.85,0Z" transform="translate(0 0)" fill="#fff" fill-rule="evenodd"/><path d="M192.76,39.69a20.63,20.63,0,0,0,36.85,0Z" transform="translate(0 0)" fill="#fff" fill-rule="evenodd"/><path d="M266.46,39.69a20.64,20.64,0,0,0-36.85,0Z" transform="translate(0 0)" fill="#fff" fill-rule="evenodd"/><path d="M39.88,96.38l-14-29.54H19.39V96.38H0V17H31.24c17.5,0,26.91,12.48,26.91,25.52A22.86,22.86,0,0,1,45.31,63.27l17,33.11ZM30.35,34.51h-11v16h11a8,8,0,0,0,0-16Z" transform="translate(0 0)" fill="#fff"/><path d="M98.5,97.23c-9.36,0-16.47-3.13-22.34-9C67.69,79.83,68,68.64,68,56.64s-.34-23.18,8.13-31.58c5.87-5.82,13-9,22.34-9,15.24,0,27.55,8.4,30.48,26H108.89c-1.26-4.42-3.72-8.42-10.26-8.42A9.59,9.59,0,0,0,90.84,37c-1.81,2.35-3,5.15-3,19.71s1.24,17.35,3,19.71a9.66,9.66,0,0,0,7.79,3.36c6.55,0,9-4,10.27-8.52H129C126.05,88.83,113.74,97.23,98.5,97.23Z" transform="translate(0 0)" fill="#fff"/><polygon points="192.76 17.01 136.06 17.01 136.06 34.02 154.49 34.02 154.49 96.38 174.33 96.38 174.33 34.02 192.76 34.02 192.76 17.01" fill="#fff"/><path d="M122,126.75a19,19,0,0,1-.4,2.49,10.72,10.72,0,0,1-.79,2.27,7,7,0,0,1-1.34,1.89,6.25,6.25,0,0,1-2.25,1.39,8.75,8.75,0,0,1-3,.5,9.28,9.28,0,0,1-3.3-.57,6.79,6.79,0,0,1-2.82-2.24v12.09h-3.17V113.38h3.17v2.55a6.66,6.66,0,0,1,2.82-2.27,9.76,9.76,0,0,1,3.3-.54,8.75,8.75,0,0,1,3,.5,6.25,6.25,0,0,1,2.25,1.39,7,7,0,0,1,1.34,1.89,11.22,11.22,0,0,1,.79,2.26,19,19,0,0,1,.4,2.49c.07.85.11,1.7.11,2.55S122.05,125.91,122,126.75Zm-3.24-5.63a7.84,7.84,0,0,0-.75-2.64,4.58,4.58,0,0,0-1.65-1.84,6,6,0,0,0-5.67,0,4.58,4.58,0,0,0-1.65,1.84,8.36,8.36,0,0,0-.77,2.64,23.52,23.52,0,0,0,0,6.16,8.36,8.36,0,0,0,.77,2.64,4.54,4.54,0,0,0,1.65,1.85,6,6,0,0,0,5.67,0,4.54,4.54,0,0,0,1.65-1.85,7.84,7.84,0,0,0,.75-2.64,26.44,26.44,0,0,0,0-6.16Z" transform="translate(0 0)" fill="#fff"/><path d="M145.11,128.93a8,8,0,0,1-2.13,3.9,8.42,8.42,0,0,1-2.69,1.8,9.71,9.71,0,0,1-7,0,8.37,8.37,0,0,1-2.68-1.8,6.91,6.91,0,0,1-1.34-1.83,10.19,10.19,0,0,1-.8-2.07,12.43,12.43,0,0,1-.39-2.26c-.08-.82-.11-1.65-.11-2.47a18.12,18.12,0,0,1,.11-2.44,13.7,13.7,0,0,1,.39-2.29,10.34,10.34,0,0,1,.8-2.06,6.91,6.91,0,0,1,1.34-1.83,8.37,8.37,0,0,1,2.68-1.8,9.71,9.71,0,0,1,7,0,8.42,8.42,0,0,1,2.69,1.8,8,8,0,0,1,2.13,3.89A22.19,22.19,0,0,1,145.11,128.93Zm-2.71-6.57a12.26,12.26,0,0,0-.22-1.81,7.36,7.36,0,0,0-.52-1.65,5.58,5.58,0,0,0-.93-1.38,5.66,5.66,0,0,0-7.87,0,4.4,4.4,0,0,0-1,1.38,10.57,10.57,0,0,0-.53,1.65,11.08,11.08,0,0,0-.24,1.81v3.69a11.08,11.08,0,0,0,.24,1.81,10.81,10.81,0,0,0,.53,1.67,3.85,3.85,0,0,0,1,1.36,5.66,5.66,0,0,0,7.87,0,4.39,4.39,0,0,0,.93-1.36,8.28,8.28,0,0,0,.52-1.67,12.26,12.26,0,0,0,.22-1.81Z" transform="translate(0 0)" fill="#fff"/><path d="M173,135h-2.94l-5.68-16.81L158.78,135h-3l-6.86-21.65h3.43l5,17.38L163,113.39h2.72l5.72,17.38,4.93-17.38h3.43Z" transform="translate(0 0)" fill="#fff"/><path d="M186.33,125a8.31,8.31,0,0,0,1.63,5.49,5.82,5.82,0,0,0,4.75,2,7.21,7.21,0,0,0,3.14-.6,8.94,8.94,0,0,0,2.53-1.87l2.16,1.89a19.23,19.23,0,0,1-1.65,1.47,8.57,8.57,0,0,1-1.74,1.05,9.35,9.35,0,0,1-2,.65,12.17,12.17,0,0,1-2.48.22,10.72,10.72,0,0,1-3.89-.66,7.45,7.45,0,0,1-3-2,9.35,9.35,0,0,1-1.92-3.46,16,16,0,0,1-.68-5c0-3.52.79-6.24,2.38-8.18a7.93,7.93,0,0,1,6.51-2.9,8,8,0,0,1,6.55,2.81,11.66,11.66,0,0,1,2.34,7.66V125Zm11.35-3.52a5.16,5.16,0,0,0-.11-.88,5.06,5.06,0,0,0-.18-.77c-.07-.25-.17-.52-.28-.81a5.1,5.1,0,0,0-2-2.38,5.84,5.84,0,0,0-6.16,0,5.1,5.1,0,0,0-2,2.38,8,8,0,0,0-.49,1.58,14.85,14.85,0,0,0-.17,2h11.44v-1.12Z" transform="translate(0 0)" fill="#fff"/><path d="M220.19,117.52a6.15,6.15,0,0,0-1.67-1.24,5.93,5.93,0,0,0-4.23.09,4.82,4.82,0,0,0-1.66,1.27,5.93,5.93,0,0,0-1,1.85,6.87,6.87,0,0,0-.37,2.29v13.29h-3.17V113.38h3.17V116a5.83,5.83,0,0,1,2.53-2.13,8.81,8.81,0,0,1,6.33-.33,6.44,6.44,0,0,1,2.4,1.58Z" transform="translate(0 0)" fill="#fff"/><rect width="283.46" height="144.57" fill="none"/></g></g></svg>